<?xml version="1.0" encoding="UTF-8" standalone="no"?>
<svg
   xmlns:dc="http://purl.org/dc/elements/1.1/"
   xmlns:cc="http://web.resource.org/cc/"
   xmlns:rdf="http://www.w3.org/1999/02/22-rdf-syntax-ns#"
   xmlns:svg="http://www.w3.org/2000/svg"
   xmlns="http://www.w3.org/2000/svg"
   xmlns:sodipodi="http://sodipodi.sourceforge.net/DTD/sodipodi-0.dtd"
   xmlns:inkscape="http://www.inkscape.org/namespaces/inkscape"
   width="434"
   height="586"
   id="svg2"
   sodipodi:version="0.32"
   inkscape:version="0.45.1"
   version="1.0">
  <g
     inkscape:label="Layer 1"
     inkscape:groupmode="layer"
     id="layer1"
     transform="translate(-377.78625,-217.49123)">
    <path
       d="M 594.81315,512.13146 C 637.62688,512.13146 672.31891,477.38564 672.31891,434.57191 C 672.31891,391.75818 637.57309,357.01236 594.81315,357.01236 C 551.94563,357.01236 517.19981,391.75818 517.19981,434.57191 C 517.19981,477.38564 551.94563,512.13146 594.81315,512.13146"
       id="path1947"
       style="fill:#ec1b2d"
       clip-path="none" />
    <path
       d="M 505.20551,512.13146 C 462.33799,512.13146 427.59218,477.38564 427.59218,434.57191 C 427.59218,391.75818 462.33799,356.95857 505.20551,356.95857 L 505.20551,512.13146"
       id="path1949"
       style="fill:#ec1b2d"
       clip-path="none" />
    <path
       d="M 684.31321,597.70513 L 684.31321,524.07197 L 757.89259,524.12576 C 757.89259,564.78804 724.9755,597.70513 684.31321,597.70513"
       id="path1951"
       style="fill:#ec1b2d"
       clip-path="none" />
    <path
       d="M 505.20551,271.33111 L 505.20551,345.01806 L 431.46478,345.01806 C 431.46478,304.35577 464.43565,271.33111 505.20551,271.33111"
       id="path1953"
       style="fill:#ec1b2d"
       clip-path="none" />
    <path
       d="M 505.20551,597.75892 L 505.20551,524.12576 L 431.51856,524.12576 C 431.51856,564.78804 464.43565,597.75892 505.20551,597.75892"
       id="path1955"
       style="fill:#ec1b2d"
       clip-path="none" />
    <path
       d="M 773.97463,501.21288 L 773.92084,367.87715 C 796.61858,381.37746 811.78625,406.17285 811.78625,434.51812 C 811.78625,462.86339 796.61858,487.65878 773.97463,501.21288"
       id="path1957"
       style="fill:#ec1b2d"
       clip-path="none" />
    <path
       d="M 528.0646,255.35664 L 661.34655,255.35664 C 647.84624,232.65891 623.10463,217.49123 594.81315,217.49123 C 566.3603,217.49123 541.6187,232.65891 528.0646,255.35664"
       id="path1959"
       style="fill:#ec1b2d"
       clip-path="none" />
    <path
       d="M 660.3784,613.6796 L 527.04267,613.6796 C 540.59676,636.37734 565.39215,651.54502 593.73742,651.54502 C 622.0827,651.54502 646.8243,636.37734 660.3784,613.6796"
       id="path1961"
       style="fill:#ec1b2d"
       clip-path="none" />
    <path
       d="M 672.26512,524.07197 C 672.26512,566.93949 637.57309,601.63152 594.75936,601.63152 C 551.94563,601.63152 517.19981,566.8857 517.19981,524.07197 L 672.26512,524.07197"
       id="path1963"
       style="fill:#ec1b2d"
       clip-path="none" />
    <path
       d="M 684.36699,512.13146 C 727.18073,512.13146 761.92654,477.38564 761.92654,434.57191 C 761.92654,391.75818 727.18073,356.95857 684.36699,356.95857 L 684.36699,512.13146"
       id="path1965"
       style="fill:#ec1b2d"
       clip-path="none" />
    <path
       d="M 672.26512,345.07185 C 672.26512,302.25811 637.57309,267.5123 594.75936,267.5123 C 551.94563,267.5123 517.19981,302.25811 517.19981,345.07185 L 672.26512,345.07185"
       id="path1967"
       style="fill:#ec1b2d"
       clip-path="none" />
    <path
       d="M 415.65166,501.21288 L 415.70545,367.87715 C 392.95393,381.37746 377.78625,406.17285 377.78625,434.51812 C 377.78625,462.86339 392.95393,487.65878 415.65166,501.21288"
       id="path1969"
       style="fill:#ec1b2d"
       clip-path="none" />
    <path
       d="M 757.94637,345.01806 L 684.36699,344.96427 L 684.36699,271.33111 C 725.02928,271.33111 757.94637,304.35577 757.94637,345.01806"
       id="path1971"
       style="fill:#ec1b2d"
       clip-path="none" />
    <path
       d="M 572.1692,731.52494 L 596.9108,731.52494 C 606.05444,731.52494 619.71611,734.16046 619.71611,749.70464 C 619.71611,758.09527 614.06857,764.01174 605.57037,765.51775 L 605.57037,765.73289 C 615.25186,766.64726 621.86755,773.10159 621.86755,781.86872 C 621.86755,799.67192 605.8393,802.30744 596.9108,802.30744 L 572.1692,802.30744 L 572.1692,731.52494 M 586.31494,760.08535 L 592.07006,760.08535 C 598.04031,760.08535 605.40901,758.84827 605.40901,751.47958 C 605.40901,743.30409 598.25546,742.65866 591.74734,742.65866 L 586.26116,742.65866 L 586.26116,760.08535 M 586.31494,791.11993 L 592.98442,791.11993 C 599.60011,791.11993 607.56045,789.50635 607.56045,781.27708 C 607.56045,772.02587 600.0304,770.62743 592.98442,770.62743 L 586.31494,770.62743 L 586.31494,791.11993 z "
       id="path1973"
       style="fill:#231f20"
       clip-path="none" />
    <path
       d="M 560.65898,801.2855 C 555.49551,802.4688 549.95554,803.49073 544.52315,803.49073 C 521.61027,803.49073 505.68959,791.98051 505.68959,768.15327 C 505.68959,743.89574 520.53455,730.34164 544.52315,730.34164 C 549.20254,730.34164 555.38794,731.20222 560.5514,733.24609 L 559.52947,745.29418 C 554.20464,742.17459 549.31011,741.52915 544.25422,741.52915 C 529.67819,741.52915 520.58834,752.66287 520.58834,767.18512 C 520.58834,781.65358 529.40926,792.46458 544.52315,792.46458 C 550.1169,792.46458 556.78638,791.2275 560.06733,789.50635 L 560.65898,801.2855"
       id="path1975"
       style="fill:#231f20"
       clip-path="none" />
    <path
       d="M 683.77535,801.2855 C 678.61188,802.4688 673.07191,803.49073 667.63952,803.49073 C 644.72664,803.49073 628.80596,791.98051 628.80596,768.15327 C 628.80596,743.89574 643.54335,730.34164 667.63952,730.34164 C 672.31891,730.34164 678.50431,731.20222 683.66778,733.24609 L 682.64584,745.29418 C 677.21344,742.17459 672.42648,741.52915 667.37059,741.52915 C 652.79456,741.52915 643.59713,752.66287 643.59713,767.18512 C 643.59713,781.65358 652.52563,792.46458 667.63952,792.46458 C 673.23327,792.46458 679.84896,791.2275 683.1837,789.50635 L 683.77535,801.2855"
       id="path1977"
       style="fill:#231f20"
       clip-path="none" />
  </g>
</svg>
